<svg width="47" height="45" viewBox="0 0 47 45" fill="none" xmlns="http://www.w3.org/2000/svg">
<g clip-path="url(#clip0_1_2699)">
<mask id="mask0_1_2699" style="mask-type:luminance" maskUnits="userSpaceOnUse" x="0" y="0" width="47" height="45">
<path d="M46.7298 0H0V45H46.7298V0Z" fill="white"/>
</mask>
<g mask="url(#mask0_1_2699)">
<path d="M39.6897 1.21568C31.8225 -2.47398 24.4788 2.94843 23.3646 7.95705C22.2503 2.94843 14.9066 -2.47398 7.03949 1.21568C7.03949 1.21568 -4.78647 6.21568 2.21963 22.6467C2.21963 22.6467 8.22969 36.8794 23.3646 45.0001C38.4995 36.8794 44.5095 22.6467 44.5095 22.6467C51.5156 6.21568 39.6897 1.21568 39.6897 1.21568Z" fill="#EC524F"/>
<path d="M28.5558 38.8105C22.8834 39.3536 17.2954 36.0864 13.2184 32.3105C7.9849 27.4484 3.74747 20.4657 3.39294 13.0864C3.23256 9.79329 3.89941 6.41398 5.69736 3.62949C6.38109 2.56915 7.19143 1.62087 8.08619 0.784668C7.74011 0.913978 7.39402 1.05191 7.03949 1.2157C7.03949 1.2157 -4.78647 6.2157 2.21963 22.6467C2.21963 22.6467 8.22969 36.8795 23.3646 45.0002C27.3909 42.8364 30.7674 40.2415 33.5614 37.6036C31.9407 38.2243 30.261 38.6467 28.5558 38.8105Z" fill="#D64A48"/>
<path d="M6.08545 22.8966H23.8371L26.2597 10.3276L27.8212 34.8449L30.9445 22.8966H40.6432" stroke="white" stroke-width="3" stroke-miterlimit="10"/>
</g>
</g>
<defs>
<clipPath id="clip0_1_2699">
<rect width="47" height="45" fill="white"/>
</clipPath>
</defs>
</svg>
