<svg width="66" height="15" viewBox="0 0 66 15" fill="none" xmlns="http://www.w3.org/2000/svg">
<path d="M9.57162 11.3441C9.37956 11.5066 9.12849 11.6395 8.8183 11.7429C8.52291 11.8316 8.17575 11.8759 7.77693 11.8759C7.24518 11.8759 6.80205 11.8094 6.44754 11.6765C6.10785 11.5435 5.88628 11.3146 5.78285 10.9896C5.36923 9.68975 5.02953 8.64104 4.76365 7.8434C4.49777 7.03097 4.29102 6.32196 4.14327 5.71638H4.03249C3.98818 6.58783 3.95122 7.38547 3.92171 8.10928C3.9069 8.81829 3.8922 9.51249 3.8774 10.192C3.8774 10.8715 3.86258 11.5583 3.83308 12.2525C3.81827 12.9468 3.78877 13.7149 3.74445 14.5568C3.5524 14.6306 3.30132 14.6898 2.99113 14.7341C2.68094 14.7932 2.37075 14.8227 2.06056 14.8227C1.41067 14.8227 0.901065 14.7193 0.531756 14.5125C0.177252 14.3058 0 13.9291 0 13.3825L0.642539 2.08271C0.760674 1.89065 1.0192 1.68389 1.41802 1.46233C1.81684 1.24076 2.3781 1.12998 3.10191 1.12998C3.88474 1.12998 4.49778 1.25557 4.94091 1.50664C5.38404 1.74301 5.70903 2.13438 5.91579 2.68094C6.04873 3.03544 6.18902 3.44161 6.33676 3.89955C6.49921 4.35748 6.65431 4.83012 6.80205 5.31756C6.9645 5.80501 7.11959 6.29245 7.26734 6.77989C7.41508 7.25253 7.54802 7.68096 7.66615 8.06497H7.77693C8.13144 6.8242 8.48594 5.62775 8.84045 4.47562C9.19495 3.30867 9.51995 2.33379 9.81534 1.55096C10.0369 1.43282 10.3176 1.33674 10.6573 1.26292C11.0118 1.17429 11.4033 1.12998 11.8316 1.12998C12.5554 1.12998 13.1462 1.24076 13.6041 1.46233C14.062 1.66909 14.3279 1.97193 14.4017 2.37075C14.4609 2.66613 14.5199 3.12407 14.579 3.74445C14.6528 4.35003 14.7267 5.03688 14.8005 5.80501C14.8744 6.57313 14.9483 7.38547 15.0221 8.24222C15.0959 9.09897 15.1624 9.92612 15.2215 10.7238C15.2953 11.5066 15.3545 12.2304 15.3988 12.8951C15.4431 13.545 15.4726 14.0472 15.4874 14.4017C15.2363 14.5495 14.9705 14.6528 14.6898 14.7119C14.4239 14.7857 14.0767 14.8227 13.6484 14.8227C13.0871 14.8227 12.6144 14.7267 12.2304 14.5347C11.8464 14.3426 11.6395 13.966 11.61 13.4047C11.5214 11.7946 11.4623 10.3471 11.4328 9.06201C11.418 7.77693 11.3884 6.69862 11.3441 5.82716H11.2333C11.0856 6.40323 10.8715 7.12704 10.5908 7.9985C10.3101 8.86996 9.97043 9.98523 9.57162 11.3441ZM23.2636 15C22.3922 15 21.5797 14.8818 20.8264 14.6455C20.0879 14.3944 19.4379 14.0251 18.8766 13.5376C18.3301 13.0502 17.8944 12.4372 17.5694 11.6986C17.2592 10.9601 17.1041 10.096 17.1041 9.10633C17.1041 8.13144 17.2592 7.29684 17.5694 6.60264C17.8944 5.89363 18.3154 5.31756 18.8323 4.87443C19.3493 4.4165 19.9402 4.08415 20.6049 3.87739C21.2695 3.65582 21.949 3.54504 22.6432 3.54504C23.4261 3.54504 24.1351 3.66318 24.7703 3.89955C25.4202 4.13592 25.9741 4.46081 26.432 4.87443C26.9046 5.28805 27.2666 5.78285 27.5177 6.35892C27.7836 6.93499 27.9165 7.56272 27.9165 8.24222C27.9165 8.74447 27.7762 9.12848 27.4955 9.39436C27.2148 9.66024 26.8235 9.83014 26.3212 9.90396L20.8486 10.7238C21.011 11.2112 21.3434 11.5805 21.8456 11.8316C22.3479 12.0679 22.9239 12.1861 23.5738 12.1861C24.1794 12.1861 24.7481 12.1123 25.2799 11.9645C25.8264 11.8021 26.2696 11.6174 26.6093 11.4106C26.8456 11.5583 27.045 11.7651 27.2075 12.031C27.3699 12.2969 27.4512 12.5775 27.4512 12.8729C27.4512 13.5376 27.141 14.0324 26.5206 14.3574C26.048 14.6085 25.5162 14.7784 24.9254 14.867C24.3345 14.9556 23.7806 15 23.2636 15ZM22.6432 6.29245C22.2887 6.29245 21.9786 6.35157 21.7127 6.4697C21.4616 6.58783 21.2547 6.74293 21.0923 6.93499C20.9298 7.11224 20.8043 7.319 20.7156 7.55537C20.6418 7.77693 20.5975 8.00585 20.5827 8.24222L24.3715 7.62184C24.3271 7.32645 24.1647 7.03097 23.884 6.73558C23.6033 6.44019 23.1898 6.29245 22.6432 6.29245ZM29.2642 9.26142C29.2642 8.28653 29.412 7.44459 29.7074 6.73558C30.0028 6.01177 30.409 5.41354 30.926 4.9409C31.4577 4.46826 32.0707 4.12111 32.7655 3.89955C33.4745 3.66318 34.2348 3.54504 35.0476 3.54504C35.3427 3.54504 35.6307 3.57455 35.9117 3.63367C36.1917 3.67798 36.4213 3.7371 36.5985 3.81092V0.221565C36.7456 0.177252 36.9822 0.132938 37.3075 0.0886254C37.6318 0.029538 37.9642 0 38.3046 0C38.6289 0 38.9169 0.0221565 39.1687 0.0664695C39.4346 0.110783 39.6561 0.199409 39.8334 0.332348C40.0106 0.465287 40.1436 0.649891 40.2322 0.88626C40.3208 1.10783 40.3651 1.40321 40.3651 1.77252V12.2747C40.3651 12.9689 40.0398 13.5228 39.3902 13.9364C38.9612 14.2171 38.4073 14.4608 37.7285 14.6676C37.0487 14.8892 36.2662 15 35.3799 15C34.4191 15 33.555 14.867 32.7876 14.6011C32.0338 14.3353 31.3912 13.9512 30.8595 13.449C30.3425 12.9468 29.9437 12.3485 29.663 11.6543C29.3972 10.9453 29.2642 10.1477 29.2642 9.26142ZM35.5572 6.49186C34.7595 6.49186 34.1462 6.72077 33.7182 7.17871C33.2892 7.63664 33.0756 8.33085 33.0756 9.26142C33.0756 10.1772 33.2751 10.8715 33.6739 11.3441C34.0727 11.8021 34.6488 12.031 35.4021 12.031C35.668 12.031 35.9036 11.994 36.1111 11.9202C36.3327 11.8316 36.5018 11.7356 36.6207 11.6322V6.75773C36.3246 6.58048 35.9701 6.49186 35.5572 6.49186ZM53.8564 9.26142C53.8564 10.1772 53.7164 10.997 53.4355 11.7208C53.1545 12.4298 52.7557 13.028 52.239 13.5155C51.7365 14.0029 51.1312 14.3722 50.4222 14.6233C49.7132 14.8744 48.9226 15 48.0514 15C47.1803 15 46.3897 14.867 45.6807 14.6011C44.9717 14.3353 44.3583 13.9586 43.8417 13.4712C43.3391 12.9689 42.9484 12.3633 42.6674 11.6543C42.3864 10.9453 42.2464 10.1477 42.2464 9.26142C42.2464 8.38996 42.3864 7.59968 42.6674 6.89067C42.9484 6.18167 43.3391 5.58344 43.8417 5.096C44.3583 4.59375 44.9717 4.20974 45.6807 3.94386C46.3897 3.67798 47.1803 3.54504 48.0514 3.54504C48.9226 3.54504 49.7132 3.68533 50.4222 3.96601C51.1312 4.23189 51.7365 4.61591 52.239 5.11815C52.7557 5.6056 53.1545 6.20382 53.4355 6.91283C53.7164 7.62184 53.8564 8.40467 53.8564 9.26142ZM46.1017 9.26142C46.1017 10.1625 46.2719 10.8567 46.6113 11.3441C46.9658 11.8168 47.4532 12.0531 48.0736 12.0531C48.694 12.0531 49.1663 11.8094 49.4916 11.322C49.831 10.8345 50.0012 10.1477 50.0012 9.26142C50.0012 8.37516 49.831 7.69566 49.4916 7.22302C49.1522 6.73558 48.6718 6.49186 48.0514 6.49186C47.431 6.49186 46.9507 6.73558 46.6113 7.22302C46.2719 7.69566 46.1017 8.37516 46.1017 9.26142ZM54.9874 5.62775C55.1063 5.06649 55.3349 4.60855 55.6743 4.25405C56.0288 3.89955 56.4649 3.72229 56.9815 3.72229C57.469 3.72229 57.8456 3.84043 58.1115 4.0768C58.3774 4.31317 58.6735 4.64551 58.9977 5.07384L60.4158 6.93499L62.7865 3.72229C63.5993 3.72229 64.2418 3.87004 64.7141 4.16542C65.1875 4.44611 65.4231 4.83012 65.4231 5.31756C65.4231 5.50962 65.3939 5.68687 65.3345 5.84932C65.2902 5.99706 65.2167 6.15216 65.1129 6.3146C65.0102 6.47705 64.8773 6.66176 64.7141 6.86852C64.552 7.07528 64.3596 7.319 64.1381 7.59968L62.6757 9.23926L65.5782 13.0723C65.5047 13.6336 65.2831 14.0767 64.9135 14.4017C64.5449 14.7267 64.1018 14.8892 63.5842 14.8892C63.0232 14.8744 62.573 14.7119 62.2326 14.4017C61.9083 14.0915 61.5901 13.7149 61.2799 13.2717L60.0834 11.5657L57.8235 14.8227C57.7499 14.8227 57.6684 14.8227 57.5797 14.8227C57.4911 14.8375 57.4176 14.8449 57.3582 14.8449C56.6048 14.8449 56.0288 14.6898 55.63 14.3796C55.2462 14.0694 55.0539 13.6854 55.0539 13.2274C55.0539 12.8729 55.1355 12.5627 55.2976 12.2969C55.4749 12.0162 55.771 11.6395 56.1839 11.1669L57.9564 9.10633L54.9874 5.62775Z" fill="#666666"/>
</svg>
