<svg width="19" height="17" viewBox="0 0 19 17" fill="none" xmlns="http://www.w3.org/2000/svg">
<path d="M13.332 0C14.2515 0 15.0974 0.238918 15.8697 0.716755C16.6421 1.19459 17.2489 1.84396 17.6902 2.66486C18.1561 3.52251 18.389 4.47206 18.389 5.5135C18.389 6.93476 18.058 8.30088 17.396 9.61187C16.8321 10.7268 16.0291 11.7989 14.9871 12.8281C14.1779 13.6367 13.2156 14.427 12.1 15.1989C11.4748 15.6277 10.6534 16.1423 9.63585 16.7427L9.19451 17L8.75318 16.7427C7.73565 16.1423 6.91427 15.6277 6.28905 15.1989C5.17345 14.427 4.21109 13.6367 3.40197 12.8281C2.35993 11.7989 1.55694 10.7268 0.993007 9.61187C0.331002 8.30088 0 6.93476 0 5.5135C0 4.47206 0.232928 3.52251 0.698783 2.66486C1.14012 1.84396 1.74696 1.19459 2.5193 0.716755C3.29164 0.238918 4.13753 0 5.05698 0C5.85384 0.0122522 6.64457 0.208288 7.42917 0.588107C8.09117 0.906665 8.67962 1.32324 9.19451 1.83783C9.70941 1.32324 10.2979 0.906665 10.9599 0.588107C11.7445 0.196036 12.5352 0 13.332 0ZM10.0588 14.3535C10.8924 13.8266 11.6341 13.3059 12.2839 12.7913C13.6814 11.6764 14.7357 10.5308 15.4468 9.35457C16.1823 8.12935 16.5501 6.85512 16.5501 5.53188C16.5501 4.82125 16.4091 4.18413 16.1272 3.62053C15.8452 3.05693 15.459 2.62198 14.9687 2.31567C14.4783 2.00936 13.9328 1.85009 13.332 1.83783C12.8417 1.83783 12.3452 1.95729 11.8425 2.19621C11.3399 2.43513 10.8924 2.75062 10.5001 3.14269L9.19451 4.44756L7.88889 3.14269C7.49659 2.75062 7.04913 2.43513 6.54649 2.19621C6.04386 1.95729 5.54736 1.83783 5.05698 1.83783C4.46853 1.83783 3.92912 1.99711 3.43875 2.31567C2.94837 2.63423 2.55914 3.07224 2.27104 3.62972C1.98295 4.1872 1.8389 4.82125 1.8389 5.53188C1.8389 6.85512 2.20668 8.12935 2.94224 9.35457C3.65329 10.5308 4.70759 11.6764 6.10516 12.7913C6.7549 13.3059 7.49659 13.8266 8.33023 14.3535C8.58768 14.5128 8.87577 14.6843 9.19451 14.8681C9.51326 14.6843 9.80135 14.5128 10.0588 14.3535Z" fill="#000D44"/>
</svg>
