<svg width="17" height="16" viewBox="0 0 17 16" fill="none" xmlns="http://www.w3.org/2000/svg">
<path d="M10.0613 6.97325L11.1956 6.27992C10.902 5.79103 10.5017 5.39992 9.99462 5.10659C9.48755 4.81325 8.93378 4.66659 8.3333 4.66659C7.73282 4.66659 7.17682 4.81547 6.6653 5.11325C6.15378 5.41103 5.74901 5.81547 5.45099 6.32659C5.15298 6.8377 5.00397 7.39547 5.00397 7.99992C5.00397 8.60436 5.15298 9.16214 5.45099 9.67325C5.74901 10.1844 6.15378 10.5888 6.6653 10.8866C7.17682 11.1844 7.73282 11.3333 8.3333 11.3333C8.93378 11.3333 9.48755 11.1866 9.99462 10.8933C10.5017 10.5999 10.902 10.2088 11.1956 9.71992L10.0613 9.02659C9.88342 9.32881 9.64101 9.56659 9.3341 9.73992C9.02718 9.91325 8.69358 9.99992 8.3333 9.99992C7.97301 9.99992 7.63941 9.91103 7.3325 9.73325C7.02558 9.55547 6.78317 9.31325 6.60525 9.00659C6.42733 8.69992 6.33837 8.36436 6.33837 7.99992C6.33837 7.63547 6.42733 7.29992 6.60525 6.99325C6.78317 6.68658 7.02558 6.44436 7.3325 6.26659C7.63941 6.08881 7.97301 5.99992 8.3333 5.99992C8.69358 5.99992 9.02718 6.08881 9.3341 6.26659C9.64101 6.44436 9.88342 6.67992 10.0613 6.97325ZM15.012 7.99992C15.012 7.09325 14.8385 6.22659 14.4916 5.39992C14.1535 4.60881 13.6753 3.90436 13.0571 3.28659C12.4388 2.66881 11.7338 2.19103 10.942 1.85325C10.1147 1.50659 9.24736 1.33325 8.33997 1.33325C7.43258 1.33325 6.56522 1.50659 5.73789 1.85325C4.94614 2.19103 4.24114 2.66881 3.62286 3.28659C3.00459 3.90436 2.52643 4.60881 2.18838 5.39992C1.84144 6.22659 1.66797 7.09325 1.66797 7.99992C1.66797 8.90659 1.84144 9.77325 2.18838 10.5999C2.52643 11.391 3.00459 12.0955 3.62286 12.7133C4.24114 13.331 4.94614 13.8088 5.73789 14.1466C6.56522 14.4933 7.43258 14.6666 8.33997 14.6666C9.24736 14.6666 10.1147 14.4933 10.942 14.1466C11.7338 13.8088 12.4388 13.331 13.0571 12.7133C13.6753 12.0955 14.1535 11.391 14.4916 10.5999C14.8385 9.77325 15.012 8.90659 15.012 7.99992ZM3.00237 7.99992C3.00237 7.03103 3.24701 6.13325 3.73629 5.30659C4.20778 4.50659 4.84384 3.87103 5.64448 3.39992C6.47181 2.91103 7.3703 2.66659 8.33997 2.66659C9.30963 2.66659 10.2081 2.91103 11.0355 3.39992C11.8361 3.87103 12.4722 4.50659 12.9436 5.30659C13.4329 6.13325 13.6776 7.03103 13.6776 7.99992C13.6776 8.96881 13.4329 9.86658 12.9436 10.6933C12.4722 11.4933 11.8361 12.1288 11.0355 12.5999C10.2081 13.0888 9.30963 13.3333 8.33997 13.3333C7.3703 13.3333 6.47181 13.0888 5.64448 12.5999C4.84384 12.1288 4.20778 11.4933 3.73629 10.6933C3.24701 9.86658 3.00237 8.96881 3.00237 7.99992Z" fill="#555555"/>
</svg>
