<svg width="13" height="12" viewBox="0 0 13 12" fill="none" xmlns="http://www.w3.org/2000/svg">
<path d="M2.67492 1.33401C2.66602 1.60955 2.58596 1.85843 2.43474 2.08064C2.28352 2.30284 2.08337 2.46506 1.8343 2.56727C1.58522 2.66949 1.32725 2.69393 1.06039 2.6406C0.793527 2.58727 0.564469 2.46283 0.373217 2.26729C0.181964 2.07175 0.0640996 1.84065 0.0196223 1.574C-0.024855 1.30735 0.00627916 1.04959 0.113025 0.800713C0.21977 0.551839 0.388784 0.354074 0.620066 0.207416C0.851348 0.0607583 1.10487 -0.00812649 1.38063 0.000761858C1.73645 0.0096502 2.04111 0.142975 2.29464 0.400738C2.54816 0.6585 2.67492 0.969592 2.67492 1.33401ZM2.71495 12V3.65387H0.0463087V12H2.71495ZM6.90471 4.7738L6.93139 3.65387H4.2761V12H6.90471V7.62696C6.90471 7.15588 7.01145 6.7559 7.22494 6.42704C7.42954 6.12483 7.69195 5.91596 8.01219 5.80041C8.33243 5.68486 8.65266 5.67597 8.9729 5.77374C9.29314 5.87152 9.55111 6.06706 9.74681 6.36037C9.96919 6.69813 10.0804 7.12033 10.0804 7.62696V12H12.7223V6.72035C12.7223 5.93818 12.5533 5.276 12.2153 4.73381C11.9217 4.26272 11.5126 3.90719 10.9877 3.6672C10.5074 3.46277 9.98698 3.37389 9.42657 3.40055C8.88394 3.42722 8.38135 3.56277 7.91879 3.8072C7.45622 4.05163 7.1182 4.37383 6.90471 4.7738Z" fill="white"/>
</svg>
