<svg width="8" height="14" viewBox="0 0 8 14" fill="none" xmlns="http://www.w3.org/2000/svg">
<path d="M4.90395 14.0001V8.05005H6.65536L7.35592 5.25003H4.90395V3.85002C4.90395 3.53269 4.91796 3.30402 4.94598 3.16402C5.00203 2.94002 5.12346 2.76735 5.31028 2.64602C5.53446 2.51535 5.86606 2.45001 6.30508 2.45001H7.35592V0.0980006C7.19713 0.0793338 6.94493 0.060667 6.59932 0.0420002C6.16964 0.014 5.75397 0 5.35231 0C4.70779 0 4.14033 0.128334 3.64994 0.385002C3.15954 0.641671 2.78358 1.00801 2.52203 1.48401C2.24181 1.99735 2.10169 2.59935 2.10169 3.29002V5.25003H0V8.05005H2.10169V14.0001H4.90395Z" fill="white"/>
</svg>
