<svg width="42" height="40" viewBox="0 0 42 40" fill="none" xmlns="http://www.w3.org/2000/svg">
<mask id="mask0_1_2329" style="mask-type:luminance" maskUnits="userSpaceOnUse" x="0" y="-1" width="42" height="41">
<path d="M41.711 -0.0029299H0V40H41.711V-0.0029299Z" fill="white"/>
</mask>
<g mask="url(#mask0_1_2329)">
<path d="M22.2831 21.9235C26.0466 23.6779 29.9327 24.5518 33.2165 24.3797C33.2363 24.3797 33.2562 24.3764 33.276 24.3764L33.511 1.0366C33.521 0.212371 32.5974 -0.284148 31.9156 0.175959L12.2831 13.4198C13.872 16.4486 17.5462 19.7123 22.2831 21.9235Z" fill="#666666"/>
<path d="M32.3988 26.617C28.9728 26.617 25.09 25.677 21.3463 23.9325C16.1825 21.5261 12.2997 18.0902 10.4328 14.6642L0.452735 21.4003C-0.328456 21.9266 -0.0437845 23.1381 0.886362 23.2639L17.6489 25.5446C18.6353 25.6803 19.5389 26.1669 20.1944 26.915L31.333 39.649C31.9519 40.3574 33.1171 39.9271 33.127 38.9837L33.2528 26.5939C32.9714 26.6104 32.6868 26.617 32.3988 26.617Z" fill="#666666"/>
<path d="M32.3986 24.8493C28.9726 24.8493 25.0898 23.9092 21.3461 22.1648C12.5411 18.0602 7.45014 10.9699 9.7573 6.02124C12.0645 1.07591 20.7701 0.417187 29.5751 4.52506C32.4549 5.86897 35.0666 7.61011 37.1254 9.56308C37.5691 9.98347 37.5889 10.6886 37.1685 11.1321C36.7448 11.5756 36.043 11.5955 35.5995 11.1751C33.7127 9.38434 31.3063 7.78223 28.6383 6.53762C21.2137 3.07522 13.4878 3.27052 11.7666 6.96132C10.0452 10.6521 14.8615 16.6931 22.2828 20.1555C26.0464 21.9099 29.9292 22.7837 33.2162 22.6116C36.2516 22.4527 38.3568 21.4299 39.1513 19.7318C39.9755 17.9609 39.1778 15.9417 38.3634 14.5547C38.0523 14.0251 38.2277 13.3465 38.7573 13.0354C39.287 12.7243 39.9655 12.8997 40.2767 13.4294C41.8126 16.0343 42.1271 18.6063 41.1638 20.6686C40.0086 23.1446 37.228 24.6209 33.3353 24.8261C33.0242 24.8427 32.7131 24.8493 32.3986 24.8493Z" fill="#666666"/>
</g>
</svg>
