<svg width="88" height="17" viewBox="0 0 88 17" fill="none" xmlns="http://www.w3.org/2000/svg">
<path d="M2.8548 16.9031C2.51011 16.86 1.8458 16.8384 0.861774 16.8384H0V2.46705C0.45962 2.49578 0.965977 2.51014 1.51897 2.51014C2.07195 2.51014 2.46338 2.48141 2.69324 2.42395L6.31303 8.57537L9.79273 2.42395C10.0226 2.48141 10.4606 2.51014 11.1071 2.51014C11.7535 2.51014 12.3064 2.49578 12.7662 2.46705V16.8384H11.9043C10.9204 16.8384 10.256 16.86 9.91127 16.9031V7.25036L6.38845 13.5526L2.8548 7.75662V16.9031ZM15.7288 11.301C15.7288 10.4607 15.8724 9.68145 16.1596 8.96328C16.4469 8.24502 16.8527 7.61662 17.377 7.07797C18.4974 5.93599 19.9625 5.36505 21.7724 5.36505C23.3022 5.36505 24.5304 5.8714 25.4569 6.88401C26.369 7.86082 26.825 9.08895 26.825 10.5684C26.825 11.1358 26.7819 11.5236 26.6958 11.7319C25.9776 11.933 24.516 12.0336 22.3111 12.0336H18.519C18.7057 12.8021 19.1403 13.4017 19.8225 13.8327C20.5048 14.2565 21.3918 14.4683 22.4835 14.4683C23.6255 14.4683 24.6058 14.2636 25.4245 13.8542C25.64 13.7465 25.8016 13.6459 25.9093 13.5526C25.895 13.8542 25.877 14.1631 25.8555 14.4791L25.737 16.1597C25.1912 16.5331 24.3077 16.7918 23.0868 16.9354C22.7277 16.9784 22.383 17 22.0525 17C20.2283 17 18.7201 16.4685 17.5278 15.4056C16.3284 14.3354 15.7288 12.9673 15.7288 11.301ZM23.9594 9.9436C23.665 8.39946 22.8247 7.62735 21.4385 7.62735C20.3468 7.62735 19.5173 8.0978 18.9499 9.0387C18.7775 9.32593 18.6447 9.64193 18.5513 9.98672C18.7237 9.99384 18.9356 10.0011 19.1869 10.0083H19.9841C20.2499 10.0154 20.5048 10.019 20.749 10.019H21.3631C21.7294 10.019 22.0884 10.0154 22.4404 10.0083L23.3238 9.97589C23.5608 9.96877 23.7727 9.95794 23.9594 9.9436ZM36.8976 16.2351C35.986 16.745 35.0733 17 34.1617 17C33.2491 17 32.4522 16.8564 31.77 16.569C31.0876 16.2818 30.5059 15.8868 30.0246 15.384C29.0336 14.3499 28.538 13.0068 28.538 11.3549C28.538 9.64554 29.1125 8.22346 30.2617 7.0887C31.418 5.9396 32.8975 5.36505 34.7003 5.36505C35.2529 5.36505 35.7954 5.43686 36.3269 5.58047V0.786439H38.9665V12.3029C38.9665 13.2581 39.0097 13.883 39.0959 14.1775C39.1892 14.4719 39.2894 14.6873 39.3978 14.8238C39.5121 14.9603 39.6555 15.0896 39.828 15.2116L37.8032 17C37.4291 16.7989 37.1282 16.544 36.8976 16.2351ZM34.6682 14.5222C35.2709 14.5222 35.8245 14.4072 36.3269 14.1775V8.20912C35.8245 8.00082 35.2779 7.89672 34.6892 7.89672C34.1005 7.89672 33.5941 7.97575 33.1705 8.1337C32.7539 8.29176 32.3947 8.51079 32.0931 8.79089C31.4611 9.37978 31.1451 10.1447 31.1451 11.0856C31.1451 12.1126 31.4324 12.9314 32.0069 13.5418C32.6246 14.1954 33.5119 14.5222 34.6682 14.5222ZM41.7355 2.37009C42.3101 1.47233 42.9098 0.6823 43.5346 0L45.8503 1.82066C45.5414 2.20131 45.2546 2.57478 44.9888 2.94109C44.9888 2.94109 44.712 3.33251 44.1594 4.11536L41.7355 2.37009ZM44.5686 15.6318C44.5686 16.2495 44.5827 16.6517 44.6117 16.8384H41.8749V5.58047H44.5686V15.6318ZM46.109 5.58047H49.0074L51.0111 13.6711L53.1653 5.58047H55.6434L57.8728 13.8435L59.8766 5.58047H62.4841L59.1655 16.8384H56.3755L54.2424 9.45881L52.2607 16.8384H49.4918L46.109 5.58047ZM63.6264 11.301C63.6264 10.4607 63.7698 9.68145 64.0566 8.96328C64.3444 8.24502 64.7496 7.61662 65.2741 7.07797C66.3943 5.93599 67.8595 5.36505 69.6697 5.36505C71.1991 5.36505 72.4276 5.8714 73.3543 6.88401C74.2659 7.86082 74.7222 9.08895 74.7222 10.5684C74.7222 11.1358 74.6791 11.5236 74.5928 11.7319C73.8748 11.933 72.4136 12.0336 70.2083 12.0336H66.4164C66.6029 12.8021 67.0372 13.4017 67.7201 13.8327C68.4021 14.2565 69.2896 14.4683 70.3808 14.4683C71.523 14.4683 72.5028 14.2636 73.3222 13.8542C73.5378 13.7465 73.6993 13.6459 73.8066 13.5526C73.7926 13.8542 73.7745 14.1631 73.7524 14.4791L73.6341 16.1597C73.0885 16.5331 72.205 16.7918 70.9845 16.9354C70.6255 16.9784 70.2805 17 69.9495 17C68.1253 17 66.617 16.4685 65.4255 15.4056C64.2261 14.3354 63.6264 12.9673 63.6264 11.301ZM71.857 9.9436C71.5621 8.39946 70.7217 7.62735 69.3357 7.62735C68.2446 7.62735 67.4142 8.0978 66.8476 9.0387C66.6751 9.32593 66.5417 9.64193 66.4485 9.98672C66.6209 9.99384 66.8326 10.0011 67.0843 10.0083H67.8816C68.1473 10.0154 68.4021 10.019 68.6468 10.019H69.2605C69.6266 10.019 69.9856 10.0154 70.3376 10.0083L71.2212 9.97589C71.4578 9.96877 71.6705 9.95794 71.857 9.9436ZM79.7647 5.98984C80.569 5.57335 81.3914 5.36505 82.2308 5.36505C83.0712 5.36505 83.7933 5.49793 84.397 5.76359C85.0068 6.02214 85.5423 6.39561 86.0016 6.88401C87.0005 7.96853 87.4989 9.34027 87.4989 10.9993C87.4989 12.8165 86.9574 14.2816 85.8722 15.3948C84.8312 16.4649 83.5345 17 81.9831 17C80.6192 17 79.4949 16.6444 78.6114 15.9335C77.6206 15.1291 77.1251 14.0194 77.1251 12.6045V0.807981H79.7647V5.98984ZM79.7647 12.5723C79.7647 13.8363 80.551 14.4683 82.1235 14.4683C82.8917 14.4683 83.5385 14.1307 84.0631 13.4557C84.5946 12.7662 84.8603 11.9079 84.8603 10.8809C84.8603 9.84662 84.5795 9.06738 84.0199 8.54308C83.5165 8.07624 82.8415 7.84287 81.9941 7.84287C81.4846 7.84287 80.921 8.01516 80.3033 8.35995C80.1087 8.46766 79.9292 8.5862 79.7647 8.71547V12.5723Z" fill="#666666"/>
</svg>
