<svg width="126" height="38" viewBox="0 0 126 38" fill="none" xmlns="http://www.w3.org/2000/svg">
<g clip-path="url(#clip0_1_2336)">
<path d="M48.8579 12.6999V11.9079H49.1439C49.1292 11.9079 49.8332 11.9226 51.2559 11.9519C52.4732 11.9666 53.7786 11.9666 55.1719 11.9519L57.5699 11.9079H57.8779V12.6999V13.4919H56.4039H54.9079V19.4539V25.4159H55.8539C56.5286 25.4159 56.9319 25.4012 57.0639 25.3719C57.6652 25.2986 58.2079 25.1006 58.6919 24.7779C59.5866 24.1619 60.1512 23.1352 60.3859 21.6979C60.5032 21.0526 60.5619 20.6346 60.5619 20.4439C60.5619 20.4292 60.8259 20.4219 61.3539 20.4219H62.1459V20.5319C62.1166 20.6052 62.0066 21.6612 61.8159 23.6999C61.5959 25.7972 61.4786 26.8606 61.4639 26.8899V26.9999H55.1499H48.8579V26.2079V25.4159H50.0459H51.2339V19.4539V13.4919H50.0459H48.8579V12.6999ZM68.1823 17.0559L69.9863 17.0779C71.9077 17.2979 73.1323 18.0239 73.6603 19.2559C73.719 19.3879 73.763 19.5199 73.7923 19.6519L73.8583 19.8939L73.8803 22.5339C73.8803 24.2499 73.895 25.1372 73.9243 25.1959C74.0417 25.3132 74.357 25.3866 74.8703 25.4159C75.105 25.4159 75.2737 25.4452 75.3763 25.5039C75.4643 25.5919 75.5083 25.8266 75.5083 26.2079C75.5083 26.5892 75.457 26.8239 75.3543 26.9119C75.2077 26.9706 74.7383 26.9999 73.9463 26.9999C73.0663 26.9852 72.487 26.9339 72.2083 26.8459C71.7537 26.6992 71.4603 26.4719 71.3283 26.1639C71.2697 26.0466 71.2403 25.9806 71.2403 25.9659C71.2403 25.9512 71.1743 25.9879 71.0423 26.0759C70.397 26.5892 69.5317 26.9266 68.4463 27.0879C67.8743 27.1466 67.427 27.1539 67.1043 27.1099C65.7843 26.9632 64.853 26.4206 64.3103 25.4819C64.1783 25.2619 64.083 25.0346 64.0243 24.7999C63.9803 24.6386 63.9583 24.4332 63.9583 24.1839C63.9583 23.8319 64.017 23.5312 64.1343 23.2819C64.3103 22.9299 64.5523 22.6292 64.8603 22.3799C65.3737 21.9839 66.0263 21.6759 66.8183 21.4559C67.7863 21.1626 68.9377 20.9866 70.2723 20.9279L70.8223 20.9059V20.5099L70.8003 19.9379V19.9159C70.7123 19.2999 70.4117 18.8672 69.8983 18.6179C69.5757 18.4566 69.1577 18.3759 68.6443 18.3759C68.043 18.3759 67.7277 18.3906 67.6983 18.4199L67.7643 18.5519C67.8817 18.7572 67.933 19.0212 67.9183 19.3439C67.9183 19.5786 67.9037 19.7472 67.8743 19.8499C67.7863 20.1139 67.6543 20.3339 67.4783 20.5099C67.2877 20.7006 67.0603 20.8399 66.7963 20.9279C66.679 20.9572 66.5103 20.9719 66.2903 20.9719C66.0703 20.9719 65.909 20.9572 65.8063 20.9279C65.5277 20.8399 65.293 20.7006 65.1023 20.5099C64.9263 20.3339 64.7943 20.1139 64.7063 19.8499C64.677 19.7472 64.6623 19.5786 64.6623 19.3439C64.6623 19.1092 64.677 18.9406 64.7063 18.8379C64.9263 18.0312 65.6377 17.4959 66.8403 17.2319C67.2363 17.1439 67.6837 17.0852 68.1823 17.0559ZM70.8223 23.2819C70.8223 22.5192 70.815 22.1379 70.8003 22.1379C70.7857 22.1379 70.749 22.1452 70.6903 22.1599C69.825 22.2186 69.0697 22.3726 68.4243 22.6219C67.735 22.9006 67.3023 23.2892 67.1263 23.7879C67.053 23.9932 67.0457 24.2572 67.1043 24.5799C67.251 25.1666 67.5883 25.5479 68.1163 25.7239C68.1457 25.7386 68.1823 25.7532 68.2263 25.7679C68.769 25.8559 69.341 25.7459 69.9423 25.4379C69.9863 25.4232 70.0303 25.4012 70.0743 25.3719C70.353 25.1959 70.551 24.9979 70.6683 24.7779C70.7563 24.6019 70.8077 24.3086 70.8223 23.8979V23.2819ZM78.2054 11.8199C79.6721 11.7612 80.3907 11.7319 80.3614 11.7319H80.4934V14.8119V17.8919C80.5081 17.8919 80.5887 17.8552 80.7354 17.7819C81.7914 17.2979 82.9647 17.0706 84.2554 17.0999C84.8127 17.1146 85.3334 17.2099 85.8174 17.3859C86.6094 17.6792 87.2401 18.1412 87.7094 18.7719C88.3401 19.6372 88.6774 20.6786 88.7214 21.8959C88.7801 23.7439 88.1714 25.1519 86.8954 26.1199C86.5581 26.3692 86.1841 26.5746 85.7734 26.7359C85.2601 26.9412 84.7174 27.0659 84.1454 27.1099C83.6614 27.1686 83.2067 27.1539 82.7814 27.0659C82.1654 26.9779 81.6007 26.8092 81.0874 26.5599C80.6327 26.3399 80.2954 26.1272 80.0754 25.9219L80.0094 25.8779L79.5914 26.4279L79.1514 26.9779L78.3594 26.9999H77.5674V20.4879C77.5674 16.1466 77.5527 13.9392 77.5234 13.8659C77.4794 13.7192 77.3841 13.6239 77.2374 13.5799C77.0321 13.5212 76.7314 13.4919 76.3354 13.4919H76.0494V12.6999V11.9079H76.1154C76.0421 11.9079 76.7387 11.8786 78.2054 11.8199ZM83.7714 18.4859C83.3754 18.4126 82.8987 18.4272 82.3414 18.5299C81.6961 18.6766 81.1607 18.9406 80.7354 19.3219L80.6254 19.4099V22.0279V24.6239L80.8894 24.8879C81.2561 25.2546 81.6374 25.5039 82.0334 25.6359C82.8254 25.8999 83.5734 25.8559 84.2774 25.5039C84.3361 25.4746 84.3947 25.4379 84.4534 25.3939C84.7321 25.1739 84.9154 24.9686 85.0034 24.7779C85.2087 24.4112 85.3261 23.6486 85.3554 22.4899C85.3554 22.4606 85.3554 22.4239 85.3554 22.3799C85.3701 20.8399 85.2674 19.8426 85.0474 19.3879C84.9887 19.2706 84.9007 19.1532 84.7834 19.0359C84.6514 18.9039 84.5414 18.8086 84.4534 18.7499C84.1894 18.6179 83.9621 18.5299 83.7714 18.4859ZM93.0262 13.1619V13.0299H93.8182H94.6102V15.1199V17.2319H96.0842H97.5582V18.0239V18.8159H96.0842H94.6102V21.8079C94.6248 23.8759 94.6542 24.9759 94.6982 25.1079C94.6982 25.1226 94.7202 25.1666 94.7642 25.2399C94.8522 25.4159 94.9842 25.5479 95.1602 25.6359C95.2335 25.6652 95.3435 25.6799 95.4902 25.6799C95.6368 25.6799 95.7322 25.6652 95.7762 25.6359C96.0108 25.5479 96.1942 25.2766 96.3262 24.8219C96.3555 24.7192 96.3775 24.4039 96.3922 23.8759V23.1059H97.1842H97.9762V23.8099C97.9762 24.4259 97.9248 24.8806 97.8222 25.1739C97.6608 25.6579 97.3748 26.0759 96.9642 26.4279C96.4802 26.7946 95.9522 27.0219 95.3802 27.1099C95.2482 27.1246 95.0208 27.1319 94.6982 27.1319C94.0968 27.1172 93.6055 27.0292 93.2242 26.8679C92.7402 26.7066 92.3442 26.4132 92.0362 25.9879C91.8015 25.6652 91.6475 25.2472 91.5742 24.7339C91.5595 24.6606 91.5522 23.6412 91.5522 21.6759V18.8159H90.8042H90.0342V18.1559V17.4739H90.2322C90.7015 17.4299 91.1195 17.2686 91.4862 16.9899C92.2342 16.4032 92.7108 15.4792 92.9162 14.2179C92.9895 13.8219 93.0262 13.4699 93.0262 13.1619ZM105.242 17.0559L106.584 17.0779C108.755 17.3272 110.199 18.3246 110.918 20.0699C110.962 20.1726 111.006 20.2826 111.05 20.3999C111.226 20.9279 111.321 21.4706 111.336 22.0279C111.365 23.2012 111.072 24.2132 110.456 25.0639C110.133 25.5479 109.693 25.9512 109.136 26.2739C108.769 26.5232 108.263 26.7359 107.618 26.9119C107.09 27.0439 106.459 27.1099 105.726 27.1099C104.993 27.1099 104.362 27.0439 103.834 26.9119C103.189 26.7359 102.683 26.5232 102.316 26.2739C101.759 25.9512 101.319 25.5479 100.996 25.0639C100.615 24.5212 100.351 23.8906 100.204 23.1719C99.94 21.7492 100.189 20.4512 100.952 19.2779C101.04 19.1166 101.143 18.9699 101.26 18.8379C102.111 17.8259 103.328 17.2392 104.912 17.0779C105 17.0632 105.11 17.0559 105.242 17.0559ZM106.386 18.4419C106.034 18.3832 105.675 18.3686 105.308 18.3979C104.736 18.4859 104.318 18.6619 104.054 18.9259C103.761 19.1899 103.585 19.6299 103.526 20.2459C103.497 20.5539 103.482 21.0086 103.482 21.6099C103.467 23.1646 103.541 24.1692 103.702 24.6239C103.907 25.1519 104.384 25.4966 105.132 25.6579C105.469 25.7166 105.865 25.7166 106.32 25.6579C106.775 25.5699 107.127 25.4012 107.376 25.1519C107.669 24.8732 107.845 24.3966 107.904 23.7219C107.919 23.5606 107.933 23.3772 107.948 23.1719L107.926 20.4219C107.926 20.3779 107.926 20.3486 107.926 20.3339C107.853 19.6592 107.677 19.1899 107.398 18.9259C107.163 18.6912 106.826 18.5299 106.386 18.4419ZM112.616 18.0239V17.2319H112.792L114.134 17.2759C114.897 17.2906 115.718 17.2906 116.598 17.2759L118.138 17.2319H118.336V18.0239V18.8159H118.094H117.852L118.424 19.5419L118.996 20.2679C119.011 20.2679 119.216 20.0259 119.612 19.5419L120.206 18.8159H119.876H119.546V18.0239V17.2319H119.722L121.064 17.2759C121.842 17.2906 122.56 17.2906 123.22 17.2759L124.386 17.2319H124.54V18.0239V18.8159H123.418H122.274L121.152 20.1799L120.03 21.5659C120.03 21.5952 120.529 22.2406 121.526 23.5019L123.022 25.4159H123.99H124.98V26.2079V26.9999H124.804L123.462 26.9559C122.7 26.9412 121.878 26.9412 120.998 26.9559L119.458 26.9999H119.26V26.2079V25.4159H119.502L119.744 25.3939L119.04 24.4919L118.336 23.5899L118.226 23.7219L116.84 25.3939C116.84 25.4086 116.95 25.4159 117.17 25.4159H117.5V26.2079V26.9999H117.302L115.96 26.9559C115.198 26.9412 114.486 26.9412 113.826 26.9559L112.66 26.9999H112.506V26.2079V25.4159H113.628H114.772L116.004 23.9199C116.84 22.8932 117.266 22.3726 117.28 22.3579L117.324 22.3139L115.96 20.5759L114.596 18.8159H113.606H112.616V18.0239Z" fill="#666666"/>
<path d="M17.9604 0C8.04016 0 0 8.04016 0 17.9604H35.9209C35.9209 8.04016 27.8774 0 17.9604 0Z" fill="#666666"/>
<path d="M33.9547 20.0391C33.9547 28.8604 26.7785 36.0333 17.9604 36.0333C9.1391 36.0333 1.96618 28.8571 1.96618 20.0391H0C0 29.9428 8.05671 37.9995 17.9604 37.9995C27.8642 37.9995 35.9209 29.9428 35.9209 20.0391H33.9547Z" fill="#666666"/>
<path d="M17.9601 33.5015C25.3846 33.5015 31.4255 27.4606 31.4255 20.0361H29.4593C29.4593 26.3782 24.2989 31.5353 17.9601 31.5353C11.618 31.5353 6.46092 26.3749 6.46092 20.0361H4.49805C4.49474 27.4639 10.5356 33.5015 17.9601 33.5015Z" fill="#666666"/>
</g>
<defs>
<clipPath id="clip0_1_2336">
<rect width="126" height="38" fill="white"/>
</clipPath>
</defs>
</svg>
