<svg width="14" height="14" viewBox="0 0 14 14" fill="none" xmlns="http://www.w3.org/2000/svg">
<path d="M6.286 0H7.714C8.42334 0 8.93667 0.00466293 9.254 0.0139888L9.884 0.0419664C10.5373 0.069944 11.102 0.177192 11.578 0.363709C12.054 0.550227 12.4693 0.820677 12.824 1.17506C13.1787 1.52944 13.4493 1.94445 13.636 2.42006C13.8227 2.89568 13.93 3.4599 13.958 4.11271L13.986 4.74221C13.9953 5.06861 14 5.58154 14 6.28098V7.70784C14 8.4166 13.9953 8.92953 13.986 9.24661L13.958 9.8761C13.93 10.5289 13.8227 11.0931 13.636 11.5688C13.4493 12.0444 13.1787 12.4594 12.824 12.8138C12.4693 13.1681 12.054 13.4386 11.578 13.6251C11.102 13.8116 10.5373 13.9189 9.884 13.9468L9.254 13.9748C8.92734 13.9842 8.414 13.9888 7.714 13.9888H6.286C5.57667 13.9888 5.06334 13.9842 4.746 13.9748L4.116 13.9468C3.46267 13.9189 2.898 13.8116 2.422 13.6251C1.946 13.4386 1.53067 13.1681 1.176 12.8138C0.821334 12.4594 0.550667 12.0444 0.364 11.5688C0.177333 11.0931 0.07 10.5289 0.042 9.8761L0.014 9.24661C0.00466666 8.9202 0 8.40728 0 7.70784V6.28098C0 5.57221 0.00466666 5.05929 0.014 4.74221L0.042 4.11271C0.07 3.4599 0.177333 2.89568 0.364 2.42006C0.550667 1.94445 0.821334 1.52944 1.176 1.17506C1.53067 0.820677 1.946 0.550227 2.422 0.363709C2.898 0.177192 3.46267 0.069944 4.116 0.0419664L4.746 0.0139888C5.07267 0.00466293 5.586 0 6.286 0ZM7 3.4972C6.36534 3.4972 5.77967 3.65341 5.243 3.96583C4.70634 4.27825 4.28167 4.70257 3.969 5.23881C3.65633 5.77505 3.5 6.36025 3.5 6.99441C3.5 7.62857 3.65633 8.21377 3.969 8.75C4.28167 9.28624 4.70634 9.71057 5.243 10.023C5.77967 10.3354 6.36534 10.4916 7 10.4916C7.63467 10.4916 8.22034 10.3354 8.757 10.023C9.29367 9.71057 9.71834 9.28624 10.031 8.75C10.3437 8.21377 10.5 7.62857 10.5 6.99441C10.5 6.36025 10.3437 5.77505 10.031 5.23881C9.71834 4.70257 9.29367 4.27825 8.757 3.96583C8.22034 3.65341 7.63467 3.4972 7 3.4972ZM7 4.89609C7.38267 4.89609 7.735 4.98934 8.057 5.17586C8.379 5.36238 8.63334 5.61651 8.82 5.93825C9.00667 6.25999 9.1 6.61205 9.1 6.99441C9.1 7.37677 9.00667 7.72882 8.82 8.05056C8.63334 8.37231 8.379 8.62644 8.057 8.81295C7.735 8.99947 7.38267 9.09273 7 9.09273C6.61734 9.09273 6.265 8.99947 5.943 8.81295C5.621 8.62644 5.36667 8.37231 5.18 8.05056C4.99334 7.72882 4.9 7.37677 4.9 6.99441C4.9 6.61205 4.99334 6.25999 5.18 5.93825C5.36667 5.61651 5.621 5.36238 5.943 5.17586C6.265 4.98934 6.61734 4.89609 7 4.89609ZM10.668 2.44804C10.4347 2.44804 10.2317 2.53431 10.059 2.70684C9.88634 2.87936 9.8 3.08453 9.8 3.32234C9.8 3.56015 9.88634 3.76532 10.059 3.93785C10.2317 4.11038 10.437 4.19664 10.675 4.19664C10.913 4.19664 11.1183 4.11038 11.291 3.93785C11.4637 3.76532 11.55 3.56015 11.55 3.32234C11.55 3.08453 11.4637 2.87936 11.291 2.70684C11.1183 2.53431 10.9107 2.44804 10.668 2.44804Z" fill="white"/>
</svg>
