<svg width="17" height="19" viewBox="0 0 17 19" fill="none" xmlns="http://www.w3.org/2000/svg">
<mask id="mask0_1_2288" style="mask-type:luminance" maskUnits="userSpaceOnUse" x="-3" y="-2" width="23" height="23">
<path d="M19.3903 -1.75563H-2.67434V20.309H19.3903V-1.75563Z" fill="white"/>
</mask>
<g mask="url(#mask0_1_2288)">
<path d="M5.5999 8.35749C5.5999 9.08894 5.89048 9.79049 6.40773 10.3077C6.92496 10.825 7.62654 11.1156 8.35798 11.1156C9.08943 11.1156 9.79098 10.825 10.3082 10.3077C10.8255 9.79049 11.1161 9.08894 11.1161 8.35749C11.1161 7.626 10.8255 6.92447 10.3082 6.40723C9.79098 5.88999 9.08943 5.59941 8.35798 5.59941C7.62654 5.59941 6.92496 5.88999 6.40773 6.40723C5.89048 6.92447 5.5999 7.626 5.5999 8.35749Z" stroke="white" stroke-width="2" stroke-linecap="round" stroke-linejoin="round"/>
<path d="M13.5586 13.5583L9.65779 17.4593C9.31298 17.8037 8.84561 17.9971 8.35828 17.9971C7.87095 17.9971 7.40358 17.8037 7.05876 17.4593L3.157 13.5583C2.12844 12.5297 1.428 11.2193 1.14424 9.7925C0.860475 8.36582 1.00615 6.88705 1.56283 5.54314C2.11951 4.19923 3.06222 3.05058 4.27171 2.24243C5.4812 1.43428 6.90318 1.00294 8.35778 1.00294C9.81244 1.00294 11.2344 1.43428 12.444 2.24243C13.6534 3.05058 14.5962 4.19923 15.1528 5.54314C15.7095 6.88705 15.8551 8.36582 15.5714 9.7925C15.2877 11.2193 14.5872 12.5297 13.5586 13.5583Z" stroke="white" stroke-width="2" stroke-linecap="round" stroke-linejoin="round"/>
</g>
</svg>
