<svg width="55" height="35" viewBox="0 0 55 35" fill="none" xmlns="http://www.w3.org/2000/svg">
<mask id="mask0_1_2320" style="mask-type:luminance" maskUnits="userSpaceOnUse" x="0" y="0" width="55" height="35">
<path d="M54.5902 0H0V35H54.5902V0Z" fill="white"/>
</mask>
<g mask="url(#mask0_1_2320)">
<path d="M20.1318 17.5802C20.1318 23.4636 23.0902 28.6692 27.5946 31.7879C32.0723 28.6192 34.9973 23.4002 34.9973 17.4968C34.9973 11.6434 32.1191 6.46451 27.7048 3.28906C23.137 6.40106 20.1318 11.6467 20.1318 17.5802Z" fill="#666666"/>
<path d="M17.7204 17.5801C17.7204 11.2059 20.7689 5.52948 25.4837 1.92998C23.0896 0.697863 20.3749 0 17.5 0C7.83343 0 0 7.83343 0 17.5C0 27.1666 7.83343 35 17.5 35C20.3282 35 22.9961 34.3255 25.3601 33.1335C20.7155 29.5273 17.7204 23.8976 17.7204 17.5801Z" fill="#666666"/>
<path d="M37.4069 34.763C27.9307 34.763 20.2241 27.0532 20.2241 17.5802C20.2241 8.10401 27.934 0.397461 37.4069 0.397461C46.8832 0.397461 54.5897 8.10734 54.5897 17.5802C54.5897 27.0532 46.8832 34.763 37.4069 34.763ZM37.4069 2.80492C29.2596 2.80492 22.6316 9.43295 22.6316 17.5769C22.6316 25.7242 29.2596 32.3489 37.4069 32.3489C45.5542 32.3489 52.1822 25.7209 52.1822 17.5769C52.1822 9.43295 45.5542 2.80492 37.4069 2.80492Z" fill="#666666"/>
</g>
</svg>
