<svg width="96" height="16" viewBox="0 0 96 16" fill="none" xmlns="http://www.w3.org/2000/svg">
<path d="M7.18239 10.6741H7.31499L9.12716 3.84534C9.51019 2.372 10.0996 1.36285 10.8951 0.817687C11.6907 0.272528 12.8914 0 14.4974 0V15.4698H12.42V2.34257C12.037 2.5046 11.7423 2.73303 11.536 3.02766C11.3445 3.32228 11.1603 3.76428 10.9835 4.35364L8.22108 13.8344H6.2763L3.49175 4.35364C3.31495 3.74961 3.13082 3.30762 2.93926 3.02766C2.74769 2.73303 2.4604 2.5046 2.07737 2.34257V15.4698H0V0C1.60594 0 2.79932 0.279962 3.58015 0.839787C4.37573 1.38495 4.97243 2.38676 5.37022 3.84534L7.18239 10.6741ZM22.5616 4.64093C25.0662 4.7441 26.3185 5.78278 26.3185 7.75699C26.3185 10.2174 24.7052 11.4476 21.4787 11.4476H20.5726V9.74596H21.6334C22.6204 9.74596 23.3055 9.59859 23.6886 9.30396C24.0717 8.99457 24.2632 8.48628 24.2632 7.77909C24.2632 7.32232 24.0938 6.9835 23.7549 6.7625C23.416 6.52674 22.9815 6.4089 22.4511 6.4089C21.4049 6.4089 20.5799 6.77727 19.9759 7.51389C19.3865 8.25051 19.0919 9.1345 19.0919 10.1658C19.0919 11.2561 19.4086 12.1401 20.0422 12.8178C20.6904 13.4956 21.5302 13.8344 22.5616 13.8344C23.4897 13.8344 24.2485 13.6061 24.8378 13.1493L26.1638 14.4532C25.1472 15.2782 23.9464 15.6908 22.5616 15.6908C20.882 15.6908 19.5412 15.1972 18.5394 14.2101C17.5375 13.2229 17.0366 11.9486 17.0366 10.3868C17.0366 8.64831 17.5302 7.24136 18.5173 6.16581C19.5044 5.09026 20.8524 4.58196 22.5616 4.64093ZM36.8132 0H38.8022V15.4698H33.6088C32.0028 15.4698 30.699 14.9615 29.6971 13.9449C28.6953 12.9135 28.1944 11.6171 28.1944 10.0554C28.1944 8.52314 28.71 7.24136 29.7413 6.21001C30.7874 5.16399 32.0249 4.64093 33.4541 4.64093C34.3675 4.64093 35.2221 4.86193 36.0177 5.30392V7.29289C35.281 6.7625 34.4265 6.4973 33.4541 6.4973C32.5701 6.4973 31.8187 6.8288 31.1999 7.49179C30.5959 8.14001 30.2938 8.99457 30.2938 10.0554C30.2938 11.1309 30.5811 11.9928 31.1557 12.641C31.7451 13.2892 32.5628 13.6134 33.6088 13.6134H36.8132V0ZM44.3262 15.4698H42.3815V6.7183H40.5693L41.4533 4.86193H44.3262V15.4698ZM42.2931 2.65196C42.1016 2.40153 42.0058 2.1289 42.0058 1.83427C42.0058 1.53964 42.1016 1.27445 42.2931 1.03868C42.4846 0.788255 42.7792 0.66299 43.177 0.66299C43.5748 0.66299 43.8696 0.788255 44.061 1.03868C44.2526 1.27445 44.3483 1.53964 44.3483 1.83427C44.3483 2.1289 44.2526 2.40153 44.061 2.65196C43.8696 2.88772 43.5748 3.00556 43.177 3.00556C42.7792 3.00556 42.4846 2.88772 42.2931 2.65196ZM54.529 13.1493L55.855 14.4532C54.8384 15.2782 53.6745 15.6908 52.3633 15.6908C50.7279 15.6908 49.4167 15.1677 48.4295 14.1217C47.4424 13.0609 46.9488 11.7423 46.9488 10.1658C46.9488 8.61887 47.4645 7.31499 48.4958 6.25421C49.5418 5.17866 50.8311 4.64093 52.3633 4.64093C53.6745 4.64093 54.8384 5.05349 55.855 5.87851L54.5511 7.20449C53.9323 6.73307 53.2031 6.4973 52.3633 6.4973C51.3467 6.4973 50.5363 6.83613 49.9323 7.51389C49.3429 8.17688 49.0483 9.06087 49.0483 10.1658C49.0483 11.2708 49.3429 12.1622 49.9323 12.8399C50.5363 13.5029 51.3467 13.8344 52.3633 13.8344C53.2178 13.8344 53.9397 13.6061 54.529 13.1493ZM57.3944 15.4698V9.43656C57.3944 7.74222 57.7112 6.57094 58.3452 5.92271C58.6545 5.59855 59.0302 5.35545 59.4722 5.19342C59.9142 5.03139 60.297 4.93556 60.6214 4.90613C60.9599 4.87669 61.417 4.86193 61.9916 4.86193H63.9364V6.7183H61.5938C61.2985 6.7183 61.0704 6.72563 60.9087 6.7404C60.746 6.75517 60.5551 6.8067 60.3341 6.8951C60.1131 6.9835 59.9213 7.12343 59.7595 7.31499C59.4793 7.66859 59.3396 8.37578 59.3396 9.43656V15.4698H57.3944ZM66.5813 6.25421C67.6129 5.17866 68.9018 4.64093 70.4487 4.64093C71.2001 4.64093 71.9003 4.7883 72.5482 5.08292C73.2112 5.36289 73.7858 5.75325 74.272 6.25421C74.7732 6.75517 75.163 7.34443 75.4433 8.02218C75.7235 8.68517 75.8632 9.39969 75.8632 10.1658C75.8632 10.932 75.7235 11.6539 75.4433 12.3316C75.1781 12.9946 74.8024 13.5765 74.3162 14.0775C73.83 14.5785 73.2554 14.9762 72.5924 15.2709C71.9294 15.5508 71.2152 15.6908 70.4487 15.6908C69.6682 15.6908 68.946 15.5508 68.283 15.2709C67.6351 14.9762 67.0675 14.5785 66.5813 14.0775C66.0951 13.5765 65.7124 12.9946 65.4321 12.3316C65.1669 11.6539 65.0343 10.932 65.0343 10.1658C65.0343 8.60411 65.5496 7.30023 66.5813 6.25421ZM70.4487 6.4973C69.4171 6.4973 68.5853 6.83613 67.9515 7.51389C67.3327 8.19165 67.0233 9.07563 67.0233 10.1658C67.0233 11.2561 67.3327 12.1401 67.9515 12.8178C68.5853 13.4956 69.4171 13.8344 70.4487 13.8344C71.4945 13.8344 72.3272 13.4956 72.946 12.8178C73.5648 12.1254 73.8742 11.2414 73.8742 10.1658C73.8742 9.0903 73.5648 8.21374 72.946 7.53599C72.3272 6.84356 71.4945 6.4973 70.4487 6.4973ZM85.5448 4.86193V6.7183H81.6332C81.2053 6.7183 80.8376 6.79937 80.5282 6.9614C80.2188 7.12343 80.0641 7.35186 80.0641 7.64649C80.0641 7.82328 80.1003 7.98531 80.1746 8.13268C80.2479 8.26528 80.3293 8.37578 80.4177 8.46417C80.5202 8.55257 80.6678 8.64831 80.8597 8.75147C81.0656 8.83987 81.2203 8.90617 81.3238 8.95037C81.4413 8.9798 81.9124 9.12717 82.7382 9.39236C83.5629 9.65756 84.1746 9.87856 84.5724 10.0554C84.9702 10.2321 85.2716 10.4752 85.4785 10.7846C85.6995 11.0793 85.8392 11.374 85.8984 11.6686C85.9567 11.9486 85.9868 12.2285 85.9868 12.5084C85.9868 14.4826 84.6307 15.4698 81.9205 15.4698H78.0972V13.6134H81.9205C83.3047 13.6134 83.9978 13.245 83.9978 12.5084C83.9978 12.1548 83.7909 11.8602 83.3791 11.6244C82.9813 11.3887 82.487 11.1898 81.8984 11.0277C81.3238 10.8657 80.7412 10.6815 80.1525 10.4752C79.5779 10.2542 79.0837 9.90799 78.6718 9.43656C78.274 8.95037 78.0751 8.35368 78.0751 7.64649C78.0751 6.74773 78.4207 6.06264 79.1138 5.59122C79.8059 5.10502 80.6457 4.86193 81.6332 4.86193H85.5448ZM95.558 4.86193V6.7183H91.6463C91.2194 6.7183 90.8508 6.79937 90.5414 6.9614C90.232 7.12343 90.0773 7.35186 90.0773 7.64649C90.0773 7.82328 90.1144 7.98531 90.1878 8.13268C90.2621 8.26528 90.3425 8.37578 90.4309 8.46417C90.5343 8.55257 90.682 8.64831 90.8729 8.75147C91.0798 8.83987 91.2345 8.90617 91.3369 8.95037C91.4555 8.9798 91.9266 9.12717 92.7513 9.39236C93.5771 9.65756 94.1878 9.87856 94.5856 10.0554C94.9834 10.2321 95.2858 10.4752 95.4917 10.7846C95.7127 11.0793 95.8533 11.374 95.9116 11.6686C95.9708 11.9486 96 12.2285 96 12.5084C96 14.4826 94.6449 15.4698 91.9336 15.4698H88.1104V13.6134H91.9336C93.3189 13.6134 94.011 13.245 94.011 12.5084C94.011 12.1548 93.8051 11.8602 93.3922 11.6244C92.9944 11.3887 92.5012 11.1898 91.9115 11.0277C91.337 10.8657 90.7553 10.6815 90.1657 10.4752C89.5911 10.2542 89.0979 9.90799 88.685 9.43656C88.2872 8.95037 88.0883 8.35368 88.0883 7.64649C88.0883 6.74773 88.4349 6.06264 89.127 5.59122C89.8201 5.10502 90.6599 4.86193 91.6463 4.86193H95.558Z" fill="#666666"/>
</svg>
