<svg width="50" height="50" viewBox="0 0 50 50" fill="none" xmlns="http://www.w3.org/2000/svg">
<path d="M0 25C0 11.1929 11.1929 0 25 0C38.8071 0 50 11.1929 50 25C50 38.8071 38.8071 50 25 50C11.1929 50 0 38.8071 0 25Z" fill="white"/>
<g clip-path="url(#clip0_1_2437)">
<path d="M22.5 24.1667C22.5 24.8297 22.7634 25.4656 23.2322 25.9344C23.7011 26.4033 24.337 26.6667 25 26.6667C25.663 26.6667 26.2989 26.4033 26.7678 25.9344C27.2366 25.4656 27.5 24.8297 27.5 24.1667C27.5 23.5036 27.2366 22.8677 26.7678 22.3989C26.2989 21.93 25.663 21.6667 25 21.6667C24.337 21.6667 23.7011 21.93 23.2322 22.3989C22.7634 22.8677 22.5 23.5036 22.5 24.1667Z" stroke="#1F5FFF" stroke-width="2" stroke-linecap="round" stroke-linejoin="round"/>
<path d="M29.7143 28.8808L26.1785 32.4167C25.866 32.7289 25.4423 32.9042 25.0006 32.9042C24.5588 32.9042 24.1352 32.7289 23.8227 32.4167L20.286 28.8808C19.3537 27.9485 18.7188 26.7606 18.4616 25.4674C18.2044 24.1742 18.3364 22.8338 18.841 21.6156C19.3456 20.3974 20.2001 19.3563 21.2964 18.6238C22.3927 17.8912 23.6816 17.5002 25.0002 17.5002C26.3187 17.5002 27.6076 17.8912 28.7039 18.6238C29.8003 19.3563 30.6547 20.3974 31.1593 21.6156C31.6639 22.8338 31.796 24.1742 31.5388 25.4674C31.2816 26.7606 30.6466 27.9485 29.7143 28.8808Z" stroke="#1F5FFF" stroke-width="2" stroke-linecap="round" stroke-linejoin="round"/>
</g>
<defs>
<clipPath id="clip0_1_2437">
<rect width="16" height="18" fill="white" transform="translate(17 16)"/>
</clipPath>
</defs>
</svg>
