<svg width="18" height="19" viewBox="0 0 18 19" fill="none" xmlns="http://www.w3.org/2000/svg">
<path d="M10.5348 14.2212L6.55581 12.0625C6.20212 12.4286 5.78528 12.7189 5.30528 12.9336C4.82527 13.1482 4.32001 13.2555 3.78948 13.2555C3.10738 13.2555 2.4758 13.0851 1.89474 12.7442C1.31369 12.4033 0.852634 11.9426 0.51158 11.3618C0.170527 10.7811 0 10.1499 0 9.4682C0 8.78649 0.170527 8.15527 0.51158 7.57456C0.852634 6.99384 1.31369 6.53306 1.89474 6.1922C2.4758 5.85135 3.10738 5.68092 3.78948 5.68092C4.32001 5.68092 4.82527 5.78823 5.30528 6.00284C5.78528 6.21745 6.20212 6.50781 6.55581 6.87391L10.5348 4.71516C10.459 4.41218 10.4211 4.10289 10.4211 3.78728C10.4211 3.10557 10.5916 2.47436 10.9327 1.89364C11.2737 1.31292 11.7348 0.852138 12.3158 0.511283C12.8969 0.170428 13.5285 0 14.2106 0C14.8927 0 15.5242 0.170428 16.1053 0.511283C16.6864 0.852138 17.1474 1.31292 17.4885 1.89364C17.8295 2.47436 18 3.10557 18 3.78728C18 4.46899 17.8295 5.1002 17.4885 5.68092C17.1474 6.26163 16.6864 6.72242 16.1053 7.06328C15.5242 7.40413 14.8927 7.57456 14.2106 7.57456C13.68 7.57456 13.1748 7.46725 12.6948 7.25264C12.2148 7.03803 11.7979 6.74767 11.4442 6.38157L7.46528 8.54032C7.54107 8.8433 7.57897 9.15259 7.57897 9.4682C7.57897 9.78381 7.54107 10.0931 7.46528 10.3961L11.4442 12.5548C11.7979 12.1887 12.2148 11.8984 12.6948 11.6838C13.1748 11.4691 13.68 11.3618 14.2106 11.3618C14.8927 11.3618 15.5242 11.5323 16.1053 11.8731C16.6864 12.214 17.1474 12.6748 17.4885 13.2555C17.8295 13.8362 18 14.4674 18 15.1491C18 15.8308 17.8295 16.462 17.4885 17.0428C17.1474 17.6235 16.6864 18.0843 16.1053 18.4251C15.5242 18.766 14.8927 18.9364 14.2106 18.9364C13.5285 18.9364 12.8969 18.766 12.3158 18.4251C11.7348 18.0843 11.2737 17.6235 10.9327 17.0428C10.5916 16.462 10.4211 15.8308 10.4211 15.1491C10.4211 14.8335 10.459 14.5242 10.5348 14.2212ZM3.78948 11.3618C4.13054 11.3618 4.44633 11.2766 4.73685 11.1062C5.02738 10.9358 5.25791 10.7054 5.42843 10.415C5.59896 10.1247 5.68422 9.80905 5.68422 9.4682C5.68422 9.12734 5.59896 8.81174 5.42843 8.52138C5.25791 8.23102 5.02738 8.00063 4.73685 7.8302C4.44633 7.65977 4.13054 7.57456 3.78948 7.57456C3.44843 7.57456 3.13264 7.65977 2.84211 7.8302C2.55159 8.00063 2.32106 8.23102 2.15053 8.52138C1.98 8.81174 1.89474 9.12734 1.89474 9.4682C1.89474 9.80905 1.98 10.1247 2.15053 10.415C2.32106 10.7054 2.55159 10.9358 2.84211 11.1062C3.13264 11.2766 3.44843 11.3618 3.78948 11.3618ZM14.2106 5.68092C14.5516 5.68092 14.8674 5.59571 15.1579 5.42528C15.4485 5.25485 15.679 5.02446 15.8495 4.7341C16.02 4.44374 16.1053 4.12813 16.1053 3.78728C16.1053 3.44642 16.02 3.13082 15.8495 2.84046C15.679 2.5501 15.4485 2.31971 15.1579 2.14928C14.8674 1.97885 14.5516 1.89364 14.2106 1.89364C13.8695 1.89364 13.5537 1.97885 13.2632 2.14928C12.9727 2.31971 12.7421 2.5501 12.5716 2.84046C12.4011 3.13082 12.3158 3.44642 12.3158 3.78728C12.3158 4.12813 12.4011 4.44374 12.5716 4.7341C12.7421 5.02446 12.9727 5.25485 13.2632 5.42528C13.5537 5.59571 13.8695 5.68092 14.2106 5.68092ZM14.2106 17.0428C14.5516 17.0428 14.8674 16.9575 15.1579 16.7871C15.4485 16.6167 15.679 16.3863 15.8495 16.0959C16.02 15.8056 16.1053 15.49 16.1053 15.1491C16.1053 14.8083 16.02 14.4927 15.8495 14.2023C15.679 13.9119 15.4485 13.6815 15.1579 13.5111C14.8674 13.3407 14.5516 13.2555 14.2106 13.2555C13.8695 13.2555 13.5537 13.3407 13.2632 13.5111C12.9727 13.6815 12.7421 13.9119 12.5716 14.2023C12.4011 14.4927 12.3158 14.8083 12.3158 15.1491C12.3158 15.49 12.4011 15.8056 12.5716 16.0959C12.7421 16.3863 12.9727 16.6167 13.2632 16.7871C13.5537 16.9575 13.8695 17.0428 14.2106 17.0428Z" fill="#000D44"/>
</svg>
