<svg width="32" height="40" viewBox="0 0 32 40" fill="none" xmlns="http://www.w3.org/2000/svg">
<mask id="mask0_1_2361" style="mask-type:luminance" maskUnits="userSpaceOnUse" x="0" y="0" width="32" height="41">
<path d="M31.216 0H0V40.0032H31.216V0Z" fill="white"/>
</mask>
<g mask="url(#mask0_1_2361)">
<path d="M15.6064 0C6.98841 0 0 6.98841 0 15.6064C0 24.2275 6.98841 31.2128 15.6064 31.2128V40.0001C15.6064 40.0001 31.2128 34.4437 31.2128 15.6032C31.216 6.98842 24.2275 0 15.6064 0ZM10.4795 15.6064C10.4795 12.7734 12.7734 10.4795 15.6064 10.4795C18.4394 10.4795 20.7333 12.7734 20.7333 15.6064C20.7333 18.4394 18.4394 20.7333 15.6064 20.7333C12.7766 20.7333 10.4795 18.4394 10.4795 15.6064Z" fill="#666666"/>
</g>
</svg>
