<svg width="86" height="17" viewBox="0 0 86 17" fill="none" xmlns="http://www.w3.org/2000/svg">
<path d="M10.4785 13.6772H10.6991L16.4347 0.4412H21.1776V15.8832H17.9789V3.5296H17.7583L12.4639 15.8832H8.7137L3.4193 3.5296H3.1987V15.8832H0V0.4412H4.7429L10.4785 13.6772ZM30.8754 14.7802C31.596 14.7802 32.2651 14.6552 32.8828 14.4052C33.5152 14.1552 34.1329 13.8022 34.7359 13.3463L35.6183 14.6699C35.3388 14.9199 35.0079 15.1479 34.6256 15.3538C34.2579 15.5596 33.8535 15.7361 33.4123 15.8832C32.9858 16.0156 32.5372 16.1185 32.0666 16.192C31.596 16.2803 31.1253 16.3244 30.6548 16.3244C29.6106 16.3244 28.6546 16.1847 27.787 15.9053C26.934 15.6405 26.206 15.2508 25.603 14.7361C25.0001 14.2066 24.5294 13.5596 24.1912 12.7948C23.8676 12.03 23.7059 11.1476 23.7059 10.1476C23.7059 9.16222 23.8603 8.28724 24.1691 7.52246C24.4927 6.74304 24.9339 6.09588 25.4927 5.58118C26.0663 5.05174 26.7428 4.65466 27.5222 4.38994C28.3017 4.11048 29.162 3.9708 30.1033 3.9708C30.9857 3.9708 31.8166 4.10316 32.596 4.36788C33.3755 4.6326 34.052 5.02236 34.6256 5.53706C35.1991 6.03712 35.6551 6.64738 35.9933 7.36804C36.3315 8.0887 36.5007 8.90492 36.5007 9.8167V11.3609H27.0811C27.2575 12.5815 27.6767 13.4566 28.3385 13.986C29.015 14.5155 29.8606 14.7802 30.8754 14.7802ZM30.1033 5.4047C29.6768 5.4047 29.2797 5.48562 28.912 5.64736C28.5443 5.8091 28.2209 6.0665 27.9414 6.41946C27.6767 6.77242 27.4561 7.22836 27.2796 7.78718C27.1178 8.346 27.0296 9.02254 27.0149 9.8167H33.1917C33.1917 9.05192 33.1034 8.39012 32.927 7.8313C32.7505 7.27248 32.5151 6.81654 32.221 6.46358C31.9416 6.09588 31.6107 5.83116 31.2283 5.66942C30.8606 5.49294 30.4856 5.4047 30.1033 5.4047ZM47.9702 14.339V5.9562H45.2127C44.7126 5.9562 44.2493 6.03712 43.8229 6.19886C43.4111 6.34596 43.0508 6.58862 42.7419 6.92684C42.4478 7.26506 42.2125 7.69894 42.036 8.22838C41.8743 8.75782 41.7934 9.39756 41.7934 10.1476C41.7934 10.8976 41.8743 11.5374 42.036 12.0668C42.2125 12.5963 42.4478 13.0301 42.7419 13.3684C43.0508 13.7066 43.4111 13.9567 43.8229 14.1184C44.2493 14.2655 44.7126 14.339 45.2127 14.339H47.9702ZM45.2127 15.8832C44.1979 15.8832 43.2714 15.7508 42.4331 15.4861C41.6096 15.2214 40.9036 14.8391 40.3153 14.339C39.727 13.8389 39.2712 13.236 38.9476 12.5301C38.6388 11.8242 38.4844 11.03 38.4844 10.1476C38.4844 9.2652 38.6388 8.47104 38.9476 7.76512C39.2712 7.0592 39.727 6.45626 40.3153 5.9562C40.9036 5.45614 41.6096 5.0738 42.4331 4.80908C43.2714 4.54436 44.1979 4.412 45.2127 4.412H47.9702V0.4412H51.0586V15.8832H45.2127ZM57.3361 15.8832H54.2477V4.6326H57.3361V15.8832ZM57.4464 1.6545C57.4464 2.0957 57.292 2.48546 56.9832 2.82368C56.6891 3.14726 56.292 3.309 55.7919 3.309C55.292 3.309 54.8875 3.14726 54.5786 2.82368C54.2845 2.48546 54.1374 2.0957 54.1374 1.6545C54.1374 1.2133 54.2845 0.83096 54.5786 0.50738C54.8875 0.169161 55.292 0 55.7919 0C56.2773 0 56.6743 0.169161 56.9832 0.50738C57.292 0.83096 57.4464 1.2133 57.4464 1.6545ZM67.3742 10.0814L72.2274 15.8832H68.6978L65.6094 12.1992L62.521 15.8832H58.9915L63.8446 10.0814L59.1018 4.412H62.6313L65.6094 7.98572L68.5875 4.412H72.1171L67.3742 10.0814ZM79.2716 14.8905C79.7429 14.8905 80.1841 14.8023 80.5952 14.6258C81.0073 14.4493 81.3673 14.1773 81.6761 13.8096C81.985 13.4272 82.2276 12.9345 82.4041 12.3315C82.5956 11.7286 82.6909 11.0006 82.6909 10.1476C82.6909 9.29458 82.5956 8.5666 82.4041 7.96366C82.2276 7.36072 81.985 6.8754 81.6761 6.5077C81.3673 6.12536 81.0073 5.8459 80.5952 5.66942C80.1841 5.49294 79.7429 5.4047 79.2716 5.4047C78.8013 5.4047 78.3601 5.49294 77.948 5.66942C77.5369 5.8459 77.1759 6.12536 76.867 6.5077C76.5582 6.8754 76.3085 7.36072 76.117 7.96366C75.9405 8.5666 75.8523 9.29458 75.8523 10.1476C75.8523 11.0006 75.9405 11.7286 76.117 12.3315C76.3085 12.9345 76.5582 13.4272 76.867 13.8096C77.1759 14.1773 77.5369 14.4493 77.948 14.6258C78.3601 14.8023 78.8013 14.8905 79.2716 14.8905ZM79.2716 3.9708C80.2573 3.9708 81.1617 4.11048 81.985 4.38994C82.8232 4.65466 83.5372 5.05174 84.1248 5.58118C84.7134 6.09588 85.1696 6.74304 85.4925 7.52246C85.8314 8.28724 85.9999 9.16222 85.9999 10.1476C85.9999 11.1476 85.8314 12.03 85.4925 12.7948C85.1696 13.5596 84.7134 14.2066 84.1248 14.7361C83.5372 15.2508 82.8232 15.6405 81.985 15.9053C81.1617 16.1847 80.2573 16.3244 79.2716 16.3244C78.2719 16.3244 77.3604 16.1847 76.5361 15.9053C75.7129 15.6405 75.007 15.2508 74.4184 14.7361C73.8308 14.2066 73.3675 13.5596 73.0286 12.7948C72.7057 12.03 72.5433 11.1476 72.5433 10.1476C72.5433 9.16222 72.7057 8.28724 73.0286 7.52246C73.3675 6.74304 73.8308 6.09588 74.4184 5.58118C75.007 5.05174 75.7129 4.65466 76.5361 4.38994C77.3604 4.11048 78.2719 3.9708 79.2716 3.9708Z" fill="#666666"/>
</svg>
