<svg width="78" height="16" viewBox="0 0 78 16" fill="none" xmlns="http://www.w3.org/2000/svg">
<path d="M5.44987 1.25766C6.93549 1.25766 8.07551 1.63275 8.86982 2.38294C9.67888 3.13312 10.0834 4.20695 10.0834 5.60431C10.0834 6.67814 9.84797 7.61948 9.3773 8.42853C8.90663 9.22285 8.22996 9.84065 7.34739 10.2819C6.47956 10.7232 5.45719 10.9439 4.28046 10.9439H2.86835V10.988L3.00074 15.4891H0L0.154449 11.2528L0 1.27973L5.44987 1.25766ZM4.94239 8.7595C6.29563 8.37709 6.9723 7.41358 6.9723 5.86909C6.9723 5.07477 6.76639 4.48636 6.3545 4.10395C5.95734 3.70679 5.33954 3.49347 4.5011 3.46408L3.00074 3.55234L2.91248 8.67124L4.94239 8.7595ZM15.3412 5.03064C16.4739 5.03064 17.3564 5.28809 17.9889 5.80289C18.6361 6.30305 18.9597 7.0091 18.9597 7.92106C18.9597 8.18583 18.9156 9.02427 18.8273 10.4364C18.8127 10.8483 18.7906 11.2748 18.7611 11.7161C18.7317 12.1426 18.717 12.5104 18.717 12.8193C18.717 13.0693 18.7538 13.2459 18.8273 13.3489C18.9009 13.4371 19.0333 13.4812 19.2245 13.4812C19.3716 13.4812 19.5628 13.4519 19.7981 13.393L20.0188 13.5695L19.754 15.114C19.2833 15.4229 18.7465 15.6067 18.1433 15.6656C17.702 15.6215 17.3344 15.467 17.0401 15.2023C16.7459 14.9227 16.5474 14.5403 16.4444 14.0549H16.2899C15.5545 14.8345 14.797 15.3788 14.0173 15.6877C12.9582 15.6729 12.1272 15.3935 11.524 14.8492C10.921 14.3049 10.6194 13.5622 10.6194 12.6207C10.6194 11.8853 10.8033 11.3116 11.171 10.8997C11.5535 10.4732 12.1272 10.1864 12.892 10.0392L16.2679 9.39936V8.49473C16.2679 7.53864 15.7972 7.06055 14.8557 7.06055C14.3998 7.06055 13.9144 7.16355 13.3995 7.36945C12.8994 7.57535 12.3331 7.89899 11.7006 8.34028L11.4799 8.20789L11.149 6.26624C11.7815 5.86909 12.4582 5.56751 13.1789 5.36161C13.8997 5.14097 14.6205 5.03064 15.3412 5.03064ZM13.907 11.3851C13.6717 11.444 13.4952 11.5469 13.3774 11.694C13.2745 11.8264 13.223 12.0323 13.223 12.3118C13.223 12.6943 13.326 12.9958 13.5319 13.2165C13.7379 13.4224 14.0247 13.5254 14.3924 13.5254C14.9661 13.5254 15.5692 13.1871 16.2017 12.5104L16.2458 10.8777L13.907 11.3851ZM26.0742 13.3268C26.545 13.3268 27.0377 13.2017 27.5525 12.9517L27.7952 13.1723L27.5084 14.9154C26.7582 15.2978 25.9934 15.5332 25.2137 15.6215C23.2279 15.4156 22.235 14.4447 22.235 12.709L22.3453 10.8777L22.3233 7.08262H20.9553L20.845 6.92817L20.9994 5.31748H22.3012V3.61853L24.971 2.75803L25.1696 2.93454L25.1034 5.31748H27.729L27.8173 5.47193L27.6849 7.08262H25.0592L24.9269 12.025C24.9269 12.4957 25.0151 12.8341 25.1916 13.04C25.3681 13.2312 25.6624 13.3268 26.0742 13.3268ZM35.7801 9.09046C35.7948 8.56092 35.6845 8.15644 35.4491 7.87693C35.2138 7.59742 34.8681 7.45771 34.4121 7.45771C33.7501 7.45771 33.0441 7.77393 32.2939 8.40647L32.2498 10.9659L32.4042 15.4891H29.4697L29.6241 11.2307L29.4918 0.220643L32.4263 0L32.316 6.68546H32.4484C33.2574 5.95002 34.1473 5.42048 35.1181 5.09684C36.2361 5.09684 37.0818 5.35429 37.6555 5.86909C38.2439 6.36924 38.5308 7.09736 38.516 8.05344L38.4498 10.988L38.5601 15.4891H35.6256L35.7801 9.09046ZM45.4046 5.03064C46.9045 5.03064 48.0519 5.47193 48.8462 6.3545C49.6405 7.23707 50.0377 8.50947 50.0377 10.1716C50.0377 11.9661 49.6114 13.3415 48.7579 14.2976C47.9055 15.2391 46.6769 15.7097 45.0736 15.7097C43.5732 15.7097 42.4259 15.2684 41.6316 14.3859C40.8373 13.5033 40.4401 12.2309 40.4401 10.5688C40.4401 8.77424 40.8667 7.40626 41.7198 6.46482C42.573 5.50874 43.8012 5.03064 45.4046 5.03064ZM45.206 7.01642C44.4999 7.01642 43.9851 7.25181 43.6615 7.72248C43.3526 8.19315 43.1981 8.95075 43.1981 9.99509C43.1981 11.3483 43.3599 12.3118 43.6836 12.8855C44.0072 13.4592 44.5367 13.746 45.2722 13.746C45.9782 13.746 46.4853 13.5181 46.7942 13.062C47.1182 12.5914 47.2796 11.8264 47.2796 10.7673C47.2796 9.42875 47.1111 8.47266 46.7721 7.89899C46.4492 7.31058 45.9268 7.01642 45.206 7.01642ZM54.9169 10.9659L55.0713 15.4891H52.1368L52.2912 11.2307L52.1588 0.220643L55.0934 0L54.9169 10.9659ZM61.8831 5.03064C63.0154 5.03064 63.898 5.28809 64.5308 5.80289C65.1777 6.30305 65.5017 7.0091 65.5017 7.92106C65.5017 8.18583 65.4575 9.02427 65.3693 10.4364C65.3542 10.8483 65.3322 11.2748 65.3031 11.7161C65.273 12.1426 65.259 12.5104 65.259 12.8193C65.259 13.0693 65.2951 13.2459 65.3693 13.3489C65.4425 13.4371 65.5749 13.4812 65.7664 13.4812C65.9129 13.4812 66.1044 13.4519 66.3401 13.393L66.5608 13.5695L66.296 15.114C65.8246 15.4229 65.288 15.6067 64.6853 15.6656C64.244 15.6215 63.8759 15.467 63.5821 15.2023C63.2872 14.9227 63.0886 14.5403 62.9863 14.0549H62.8319C62.0958 14.8345 61.3386 15.3788 60.5593 15.6877C59.5002 15.6729 58.6688 15.3935 58.066 14.8492C57.4623 14.3049 57.1614 13.5622 57.1614 12.6207C57.1614 11.8853 57.3449 11.3116 57.713 10.8997C58.0951 10.4732 58.6688 10.1864 59.434 10.0392L62.8098 9.39936V8.49473C62.8098 7.53864 62.3385 7.06055 61.3977 7.06055C60.9414 7.06055 60.456 7.16355 59.9415 7.36945C59.441 7.57535 58.8744 7.89899 58.2425 8.34028L58.0219 8.20789L57.6909 6.26624C58.3228 5.86909 58.9997 5.56751 59.7208 5.36161C60.4409 5.14097 61.162 5.03064 61.8831 5.03064ZM60.449 11.3851C60.2133 11.444 60.0368 11.5469 59.9194 11.694C59.8161 11.8264 59.765 12.0323 59.765 12.3118C59.765 12.6943 59.8673 12.9958 60.0739 13.2165C60.2795 13.4224 60.5663 13.5254 60.9344 13.5254C61.508 13.5254 62.1108 13.1871 62.7436 12.5104L62.7878 10.8777L60.449 11.3851ZM74.0064 5.09684C75.3002 5.09684 76.2861 5.53812 76.963 6.42069C77.654 7.28852 78 8.50205 78 10.0613C78 11.8706 77.5507 13.2679 76.6541 14.2535C75.7565 15.2243 74.5139 15.7097 72.9253 15.7097C72.1751 15.7097 71.3507 15.5405 70.4541 15.2023L68.9096 15.7539L68.5566 15.467L68.711 11.2748L68.5786 0.220643L71.4911 0L71.4029 6.68546H71.5352C71.9464 6.28831 72.3436 5.97208 72.7267 5.7367C73.1088 5.48667 73.5351 5.27335 74.0064 5.09684ZM72.9253 13.7901C73.6604 13.7901 74.2341 13.5254 74.6463 12.9958C75.0575 12.4663 75.2641 11.6572 75.2641 10.5688C75.2641 9.55381 75.0946 8.78156 74.7566 8.25202C74.4327 7.72248 73.9402 7.45771 73.2783 7.45771C72.6746 7.45771 72.0427 7.76661 71.3808 8.38441L71.3367 10.8997L71.3808 13.393C71.9244 13.6578 72.4399 13.7901 72.9253 13.7901Z" fill="#666666"/>
</svg>
