<svg width="47" height="45" viewBox="0 0 47 45" fill="none" xmlns="http://www.w3.org/2000/svg">
<mask id="mask0_1_2712" style="mask-type:luminance" maskUnits="userSpaceOnUse" x="-1" y="0" width="48" height="45">
<path d="M46.7289 0H-0.000976562V45H46.7289V0Z" fill="white"/>
</mask>
<g mask="url(#mask0_1_2712)">
<path d="M39.6887 1.21568C31.8216 -2.47398 24.4778 2.94843 23.3636 7.95705C22.2493 2.94843 14.9056 -2.47398 7.03852 1.21568C7.03852 1.21568 -4.78745 6.21568 2.21866 22.6467C2.21866 22.6467 8.22871 36.8794 23.3636 45.0001C38.4985 36.8794 44.5085 22.6467 44.5085 22.6467C51.5147 6.21568 39.6887 1.21568 39.6887 1.21568Z" fill="#EC524F"/>
<path d="M28.5549 38.8105C22.8825 39.3536 17.2945 36.0864 13.2174 32.3105C7.98392 27.4484 3.74649 20.4657 3.39196 13.0864C3.23158 9.79329 3.89844 6.41398 5.69638 3.62949C6.38011 2.56915 7.19045 1.62087 8.08521 0.784668C7.73913 0.913978 7.39304 1.05191 7.03852 1.2157C7.03852 1.2157 -4.78745 6.2157 2.21866 22.6467C2.21866 22.6467 8.22871 36.8795 23.3636 45.0002C27.39 42.8364 30.7664 40.2415 33.5605 37.6036C31.9398 38.2243 30.26 38.6467 28.5549 38.8105Z" fill="#D64A48"/>
<path d="M6.08447 22.8966H23.8361L26.2587 10.3276L27.8203 34.8449L30.9435 22.8966H40.6423" stroke="white" stroke-width="3" stroke-miterlimit="10"/>
</g>
</svg>
