<svg width="22" height="21" viewBox="0 0 22 21" fill="none" xmlns="http://www.w3.org/2000/svg">
<path d="M10.94 1.75C12.1303 1.75 13.268 1.9775 14.3533 2.4325C15.3918 2.87583 16.3166 3.50292 17.1277 4.31375C17.9387 5.12458 18.5659 6.04917 19.0093 7.0875C19.4644 8.1725 19.692 9.31 19.692 10.5C19.692 11.69 19.4644 12.8275 19.0093 13.9125C18.5659 14.9508 17.9387 15.8754 17.1277 16.6862C16.3166 17.4971 15.3918 18.1242 14.3533 18.5675C13.268 19.0225 12.1303 19.25 10.94 19.25C9.74972 19.25 8.61196 19.0225 7.52671 18.5675C6.48814 18.1242 5.56334 17.4971 4.75232 16.6862C3.94131 15.8754 3.31408 14.9508 2.87064 13.9125C2.41554 12.8275 2.18799 11.69 2.18799 10.5C2.18799 9.31 2.41554 8.1725 2.87064 7.0875C3.31408 6.04917 3.94131 5.12458 4.75232 4.31375C5.56334 3.50292 6.48814 2.87583 7.52671 2.4325C8.61196 1.9775 9.74972 1.75 10.94 1.75ZM11.08 14C10.2048 14 9.37046 14.175 8.57695 14.525C7.81844 14.875 7.15329 15.3592 6.58149 15.9775C7.1883 16.4558 7.85928 16.8292 8.59445 17.0975C9.34129 17.3658 10.1231 17.5 10.94 17.5C11.7918 17.5 12.6087 17.3542 13.3905 17.0625C14.1491 16.7825 14.8375 16.3742 15.456 15.8375C14.8959 15.2658 14.2424 14.8167 13.4956 14.49C12.7254 14.1633 11.9202 14 11.08 14ZM10.94 3.5C9.66803 3.5 8.48943 3.82083 7.40418 4.4625C6.35394 5.08083 5.51958 5.915 4.90111 6.965C4.25929 8.05 3.93839 9.22833 3.93839 10.5C3.93839 11.2817 4.06092 12.0312 4.30597 12.7487C4.55103 13.4662 4.90111 14.1225 5.35621 14.7175C6.09138 13.9475 6.94324 13.3467 7.9118 12.915C8.91536 12.4717 9.97143 12.25 11.08 12.25C12.1536 12.25 13.1747 12.4542 14.1432 12.8625C15.0884 13.2592 15.9228 13.825 16.6463 14.56C17.0664 13.9767 17.3873 13.3408 17.609 12.6525C17.8307 11.9642 17.9416 11.2467 17.9416 10.5C17.9416 9.22833 17.6207 8.05 16.9789 6.965C16.3604 5.915 15.526 5.08083 14.4758 4.4625C13.3905 3.82083 12.2119 3.5 10.94 3.5ZM10.94 4.375C11.5701 4.375 12.1536 4.5325 12.6904 4.8475C13.2272 5.1625 13.6531 5.58833 13.9682 6.125C14.2833 6.66167 14.4408 7.245 14.4408 7.875C14.4408 8.505 14.2833 9.08833 13.9682 9.625C13.6531 10.1617 13.2272 10.5875 12.6904 10.9025C12.1536 11.2175 11.5701 11.375 10.94 11.375C10.3098 11.375 9.72638 11.2175 9.18959 10.9025C8.6528 10.5875 8.22687 10.1617 7.9118 9.625C7.59672 9.08833 7.43919 8.505 7.43919 7.875C7.43919 7.245 7.59672 6.66167 7.9118 6.125C8.22687 5.58833 8.6528 5.1625 9.18959 4.8475C9.72638 4.5325 10.3098 4.375 10.94 4.375ZM10.94 6.125C10.6249 6.125 10.3332 6.20375 10.0648 6.36125C9.79639 6.51875 9.58343 6.73167 9.42589 7C9.26836 7.26833 9.18959 7.56 9.18959 7.875C9.18959 8.19 9.26836 8.48167 9.42589 8.75C9.58343 9.01833 9.79639 9.23125 10.0648 9.38875C10.3332 9.54625 10.6249 9.625 10.94 9.625C11.2551 9.625 11.5468 9.54625 11.8152 9.38875C12.0836 9.23125 12.2965 9.01833 12.4541 8.75C12.6116 8.48167 12.6904 8.19 12.6904 7.875C12.6904 7.56 12.6116 7.26833 12.4541 7C12.2965 6.73167 12.0836 6.51875 11.8152 6.36125C11.5468 6.20375 11.2551 6.125 10.94 6.125Z" fill="#000D44"/>
</svg>
