<svg width="16" height="16" viewBox="0 0 16 16" fill="none" xmlns="http://www.w3.org/2000/svg">
<g clip-path="url(#clip0_1_2637)">
<mask id="mask0_1_2637" style="mask-type:luminance" maskUnits="userSpaceOnUse" x="2" y="0" width="16" height="16">
<path d="M18 0H2V16H18V0Z" fill="white"/>
</mask>
<g mask="url(#mask0_1_2637)">
<path d="M6.16016 11.8402C8.39594 14.076 10.922 15.578 13.0907 15.9612C13.236 15.9871 13.3832 16.0002 13.5308 16.0004C14.1551 16.0004 14.7343 15.7585 15.1947 15.2981L16.7326 13.7603C16.9441 13.5483 17.0629 13.2611 17.0629 12.9617C17.0629 12.6622 16.9441 12.375 16.7326 12.1631L13.9698 9.40031C13.7578 9.1888 13.4706 9.07 13.1712 9.07C12.8718 9.07 12.5846 9.1888 12.3726 9.40031L10.9773 10.7957C9.65628 9.83853 8.16185 8.34409 7.20469 7.02313L8.60006 5.62775C8.81158 5.41581 8.93037 5.1286 8.93037 4.82917C8.93037 4.52974 8.81158 4.24254 8.60006 4.03059L5.83728 1.26781C5.62534 1.0563 5.33815 0.937518 5.03872 0.937518C4.7393 0.937518 4.4521 1.0563 4.24016 1.26781L2.70228 2.80566C2.13516 3.37275 1.89969 4.12 2.03922 4.90972C2.42225 7.07837 3.92438 9.60444 6.16016 11.8402ZM3.40938 3.51275L4.94725 1.975C4.97166 1.95103 5.0045 1.93761 5.03871 1.93761C5.07291 1.93761 5.10575 1.95103 5.13016 1.975L7.89294 4.73778C7.91675 4.76228 7.93008 4.7951 7.93008 4.82927C7.93008 4.86343 7.91675 4.89625 7.89294 4.92075L6.42419 6.3895C6.27708 6.53593 6.1868 6.72987 6.16946 6.93671C6.15213 7.14354 6.20886 7.34981 6.32953 7.51869C7.37788 8.99272 9.00766 10.6225 10.4817 11.6708C10.6506 11.7915 10.8568 11.8483 11.0637 11.831C11.2705 11.8136 11.4645 11.7233 11.6109 11.5762L13.0797 10.1075C13.1041 10.0835 13.137 10.0701 13.1712 10.0701C13.2054 10.0701 13.2383 10.0835 13.2627 10.1075L16.0255 12.8703C16.0494 12.8947 16.0628 12.9275 16.0628 12.9618C16.0628 12.996 16.0494 13.0288 16.0255 13.0532L14.4876 14.5911C14.1532 14.9254 13.7301 15.0587 13.2646 14.9765C11.3222 14.6332 8.93066 13.1965 6.86725 11.1331C4.80385 9.06975 3.36713 6.67813 3.02397 4.73575C2.94169 4.27009 3.07497 3.84716 3.40938 3.51275ZM18.0004 6.62563C18.0004 6.75823 17.9477 6.88541 17.8539 6.97918C17.7602 7.07295 17.633 7.12563 17.5004 7.12563C17.3678 7.12563 17.2406 7.07295 17.1468 6.97918C17.0531 6.88541 17.0004 6.75823 17.0004 6.62563C17.0004 3.52363 14.4767 1 11.3748 1C11.2421 1 11.115 0.947322 11.0212 0.853553C10.9274 0.759785 10.8748 0.632608 10.8748 0.5C10.8748 0.367392 10.9274 0.240215 11.0212 0.146447C11.115 0.0526784 11.2421 0 11.3748 0C15.0282 0 18.0004 2.97225 18.0004 6.62563ZM11.3748 3.86803C11.2421 3.86803 11.115 3.81535 11.0212 3.72158C10.9274 3.62782 10.8748 3.50064 10.8748 3.36803C10.8748 3.23542 10.9274 3.10825 11.0212 3.01448C11.115 2.92071 11.2421 2.86803 11.3748 2.86803C12.371 2.86916 13.3261 3.26541 14.0305 3.96985C14.735 4.67429 15.1312 5.62939 15.1323 6.62563C15.1323 6.75823 15.0797 6.88541 14.9859 6.97918C14.8921 7.07295 14.765 7.12563 14.6323 7.12563C14.4997 7.12563 14.3726 7.07295 14.2788 6.97918C14.185 6.88541 14.1323 6.75823 14.1323 6.62563C14.1315 5.89452 13.8407 5.19359 13.3238 4.67662C12.8068 4.15964 12.1059 3.86885 11.3748 3.86803ZM10.3176 5.73006C10.3176 5.59745 10.3702 5.47028 10.464 5.37651C10.5578 5.28274 10.685 5.23006 10.8176 5.23006C11.3546 5.23067 11.8695 5.44428 12.2493 5.82403C12.629 6.20378 12.8426 6.71867 12.8432 7.25572C12.8432 7.38833 12.7905 7.5155 12.6968 7.60927C12.603 7.70304 12.4758 7.75572 12.3432 7.75572C12.2106 7.75572 12.0834 7.70304 11.9897 7.60927C11.8959 7.5155 11.8432 7.38833 11.8432 7.25572C11.8429 6.98379 11.7348 6.72309 11.5425 6.53081C11.3502 6.33853 11.0895 6.23037 10.8176 6.23006C10.685 6.23006 10.5578 6.17738 10.464 6.08362C10.3702 5.98985 10.3176 5.86267 10.3176 5.73006Z" fill="white"/>
</g>
</g>
<defs>
<clipPath id="clip0_1_2637">
<rect width="16" height="16" fill="white"/>
</clipPath>
</defs>
</svg>
